<svg width="36" height="36" viewBox="0 0 36 36" fill="none" xmlns="http://www.w3.org/2000/svg">
<path d="M18 35C21.3137 35 24 32.3137 24 29C24 25.6863 21.3137 23 18 23C14.6863 23 12 25.6863 12 29C12 32.3137 14.6863 35 18 35Z" fill="#50A5E6"/>
<path d="M29 25C32.866 25 36 21.866 36 18C36 14.134 32.866 11 29 11C25.134 11 22 14.134 22 18C22 21.866 25.134 25 29 25Z" fill="#50A5E6"/>
<path d="M10.5 22C16.299 22 21 17.299 21 11.5C21 5.70101 16.299 1 10.5 1C4.70101 1 0 5.70101 0 11.5C0 17.299 4.70101 22 10.5 22Z" fill="#50A5E6"/>
<path d="M10.5 21C15.7467 21 20 16.7467 20 11.5C20 6.25329 15.7467 2 10.5 2C5.25329 2 1 6.25329 1 11.5C1 16.7467 5.25329 21 10.5 21Z" fill="#A8E0F9" fill-opacity="0.5"/>
<path d="M18 34C20.7614 34 23 31.7614 23 29C23 26.2386 20.7614 24 18 24C15.2386 24 13 26.2386 13 29C13 31.7614 15.2386 34 18 34Z" fill="#A8E0F9" fill-opacity="0.5"/>
<path d="M29 24C32.3137 24 35 21.3137 35 18C35 14.6863 32.3137 12 29 12C25.6863 12 23 14.6863 23 18C23 21.3137 25.6863 24 29 24Z" fill="#A8E0F9" fill-opacity="0.5"/>
<path d="M10.5 19.5C10.2348 19.5 9.98043 19.3946 9.79289 19.2071C9.60536 19.0196 9.5 18.7652 9.5 18.5C9.5 18.2348 9.60536 17.9804 9.79289 17.7929C9.98043 17.6054 10.2348 17.5 10.5 17.5C13.809 17.5 16.5 14.809 16.5 11.5C16.5 11.2348 16.6054 10.9804 16.7929 10.7929C16.9804 10.6054 17.2348 10.5 17.5 10.5C17.7652 10.5 18.0196 10.6054 18.2071 10.7929C18.3946 10.9804 18.5 11.2348 18.5 11.5C18.5 15.911 14.911 19.5 10.5 19.5ZM34 18.5C34 18.2348 33.8946 17.9804 33.7071 17.7929C33.5196 17.6054 33.2652 17.5 33 17.5C32.7348 17.5 32.4804 17.6054 32.2929 17.7929C32.1054 17.9804 32 18.2348 32 18.5C32 19.878 30.878 21 29.5 21C29.2348 21 28.9804 21.1054 28.7929 21.2929C28.6054 21.4804 28.5 21.7348 28.5 22C28.5 22.2652 28.6054 22.5196 28.7929 22.7071C28.9804 22.8946 29.2348 23 29.5 23C31.981 23 34 20.981 34 18.5ZM22 29.5C22 29.2348 21.8946 28.9804 21.7071 28.7929C21.5196 28.6054 21.2652 28.5 21 28.5C20.7348 28.5 20.4804 28.6054 20.2929 28.7929C20.1054 28.9804 20 29.2348 20 29.5C20 30.327 19.327 31 18.5 31C18.2348 31 17.9804 31.1054 17.7929 31.2929C17.6054 31.4804 17.5 31.7348 17.5 32C17.5 32.2652 17.6054 32.5196 17.7929 32.7071C17.9804 32.8946 18.2348 33 18.5 33C20.43 33 22 31.43 22 29.5Z" fill="#F2F9FF"/>
<path d="M3.5 13C3.10218 13 2.72064 12.842 2.43934 12.5607C2.15804 12.2794 2 11.8978 2 11.5C2 6.813 5.813 3 10.5 3C10.8978 3 11.2794 3.15804 11.5607 3.43934C11.842 3.72064 12 4.10218 12 4.5C12 4.89782 11.842 5.27936 11.5607 5.56066C11.2794 5.84196 10.8978 6 10.5 6C9.0418 6.00159 7.64377 6.58156 6.61267 7.61267C5.58156 8.64377 5.00159 10.0418 5 11.5C5 11.8978 4.84196 12.2794 4.56066 12.5607C4.27936 12.842 3.89782 13 3.5 13ZM27 18C27 16.897 27.897 16 29 16C29.3978 16 29.7794 15.842 30.0607 15.5607C30.342 15.2794 30.5 14.8978 30.5 14.5C30.5 14.1022 30.342 13.7206 30.0607 13.4393C29.7794 13.158 29.3978 13 29 13C26.243 13 24 15.243 24 18C24 18.3978 24.158 18.7794 24.4393 19.0607C24.7206 19.342 25.1022 19.5 25.5 19.5C25.8978 19.5 26.2794 19.342 26.5607 19.0607C26.842 18.7794 27 18.3978 27 18ZM17 29C17 28.449 17.449 28 18 28C18.3978 28 18.7794 27.842 19.0607 27.5607C19.342 27.2794 19.5 26.8978 19.5 26.5C19.5 26.1022 19.342 25.7206 19.0607 25.4393C18.7794 25.158 18.3978 25 18 25C15.794 25 14 26.794 14 29C14 29.3978 14.158 29.7794 14.4393 30.0607C14.7206 30.342 15.1022 30.5 15.5 30.5C15.8978 30.5 16.2794 30.342 16.5607 30.0607C16.842 29.7794 17 29.3978 17 29Z" fill="white"/>
<path d="M10.5001 1C11.1801 1 11.8441 1.07 12.4881 1.195C12.8236 1.91721 12.9983 2.70366 13.0001 3.5C12.9984 4.82122 12.5212 6.09769 11.6558 7.09599C10.7903 8.09428 9.59441 8.74767 8.28678 8.93666C6.97915 9.12565 5.64719 8.8376 4.53449 8.12521C3.42178 7.41282 2.60271 6.32369 2.22705 5.057C4.15005 2.593 7.14005 1 10.5001 1ZM23.0791 14.283C23.2727 15.3918 23.8753 16.3876 24.7678 17.0734C25.6603 17.7592 26.7777 18.0852 27.899 17.9867C29.0203 17.8883 30.0638 17.3727 30.8232 16.5419C31.5826 15.7111 32.0025 14.6256 32.0001 13.5C31.9956 12.7917 31.8221 12.0947 31.4941 11.467C30.6981 11.1607 29.8529 11.0024 29.0001 11C27.816 11.0018 26.6518 11.3039 25.6163 11.8781C24.5807 12.4522 23.7078 13.2797 23.0791 14.283ZM13.0611 25.601C13.2024 26.5451 13.6776 27.4072 14.4004 28.0308C15.1231 28.6545 16.0454 28.9983 17.0001 29C18.0609 29 19.0783 28.5786 19.8285 27.8284C20.5786 27.0783 21.0001 26.0609 21.0001 25C21.0001 24.534 20.9051 24.093 20.7581 23.677C19.9067 23.2324 18.9605 23.0001 18.0001 23C17.0277 23.0009 16.07 23.2381 15.2097 23.6912C14.3493 24.1443 13.6119 24.7997 13.0611 25.601Z" fill="white" fill-opacity="0.5"/>
</svg>
