<svg width="100" height="100" viewBox="0 0 100 100" fill="none" xmlns="http://www.w3.org/2000/svg">
<path d="M21.875 43.75C21.0462 43.75 20.2513 44.0792 19.6653 44.6653C19.0792 45.2513 18.75 46.0462 18.75 46.875V84.375C18.75 85.2038 19.0792 85.9987 19.6653 86.5847C20.2513 87.1708 21.0462 87.5 21.875 87.5H78.125C78.9538 87.5 79.7487 87.1708 80.3347 86.5847C80.9208 85.9987 81.25 85.2038 81.25 84.375V46.875C81.25 46.0462 80.9208 45.2513 80.3347 44.6653C79.7487 44.0792 78.9538 43.75 78.125 43.75H21.875ZM21.875 37.5H78.125C80.6114 37.5 82.996 38.4877 84.7541 40.2459C86.5123 42.004 87.5 44.3886 87.5 46.875V84.375C87.5 86.8614 86.5123 89.246 84.7541 91.0041C82.996 92.7623 80.6114 93.75 78.125 93.75H21.875C19.3886 93.75 17.004 92.7623 15.2459 91.0041C13.4877 89.246 12.5 86.8614 12.5 84.375V46.875C12.5 44.3886 13.4877 42.004 15.2459 40.2459C17.004 38.4877 19.3886 37.5 21.875 37.5Z" fill="#90CCDA"/>
<path d="M50 53.125C50.8288 53.125 51.6237 53.4542 52.2097 54.0403C52.7958 54.6263 53.125 55.4212 53.125 56.25V75C53.125 75.8288 52.7958 76.6237 52.2097 77.2097C51.6237 77.7958 50.8288 78.125 50 78.125C49.1712 78.125 48.3763 77.7958 47.7903 77.2097C47.2042 76.6237 46.875 75.8288 46.875 75V56.25C46.875 55.4212 47.2042 54.6263 47.7903 54.0403C48.3763 53.4542 49.1712 53.125 50 53.125ZM68.75 37.5V31.25C68.75 26.2772 66.7746 21.5081 63.2583 17.9917C59.7419 14.4754 54.9728 12.5 50 12.5C45.0272 12.5 40.2581 14.4754 36.7417 17.9917C33.2254 21.5081 31.25 26.2772 31.25 31.25V37.5H68.75ZM50 6.25C56.6304 6.25 62.9893 8.88392 67.6777 13.5723C72.3661 18.2607 75 24.6196 75 31.25V43.75H25V31.25C25 24.6196 27.6339 18.2607 32.3223 13.5723C37.0107 8.88392 43.3696 6.25 50 6.25Z" fill="#90CCDA"/>
</svg>
